<?xml version="1.0" encoding="UTF-8" standalone="no"?><!DOCTYPE svg PUBLIC "-//W3C//DTD SVG 1.1//EN" "http://www.w3.org/Graphics/SVG/1.1/DTD/svg11.dtd"><!-- Generated by graphviz version 2.40.1 (20161225.0304)
 --><!-- Title: G Pages: 1 --><svg xmlns="http://www.w3.org/2000/svg" xmlns:xlink="http://www.w3.org/1999/xlink" width="204pt" height="310pt" viewBox="0.00 0.00 204.07 310.40">
<g id="graph0" class="graph" transform="scale(1 1) rotate(0) translate(4 306.4)">
<title>G</title>
<polygon fill="#ffffff" stroke="transparent" points="-4,4 -4,-306.4 200.0745,-306.4 200.0745,4 -4,4"/>
<!-- Vec3 -->
<g id="node1" class="node">
<title>Vec3</title>
<ellipse fill="none" stroke="#000000" cx="37.6881" cy="-284.4" rx="31.3198" ry="18"/>
<text text-anchor="middle" x="37.6881" y="-280.2" font-family="Times,serif" font-size="14.00" fill="#000000">Vec3</text>
</g>
<!-- so3 -->
<g id="node2" class="node">
<title>so3</title>
<ellipse fill="none" stroke="#000000" cx="32.6881" cy="-195.6" rx="27" ry="18"/>
<text text-anchor="middle" x="32.6881" y="-191.4" font-family="Times,serif" font-size="14.00" fill="#000000">so3</text>
</g>
<!-- Vec3&#45;&gt;so3 -->
<g id="edge1" class="edge">
<title>Vec3-&gt;so3</title>
<path fill="none" stroke="#000000" d="M29.003,-266.8725C26.5888,-261.1294 24.2971,-254.6227 23.0829,-248.4 21.477,-240.1698 22.1874,-231.2006 23.7839,-223.0292"/>
<polygon fill="#000000" stroke="#000000" points="27.2069,-223.7654 26.1725,-213.2211 20.4057,-222.109 27.2069,-223.7654"/>
<text text-anchor="middle" x="33.9907" y="-235.8" font-family="Times,serif" font-size="14.00" fill="#000000"> hat</text>
</g>
<!-- so3&#45;&gt;Vec3 -->
<g id="edge4" class="edge">
<title>so3-&gt;Vec3</title>
<path fill="none" stroke="#000000" d="M39.2377,-213.3041C41.0564,-219.0566 42.7806,-225.5243 43.6881,-231.6 44.8821,-239.5939 44.5562,-248.3001 43.6108,-256.295"/>
<polygon fill="#000000" stroke="#000000" points="40.1365,-255.8617 42.0869,-266.2755 47.0563,-256.9183 40.1365,-255.8617"/>
<text text-anchor="middle" x="56.1527" y="-235.8" font-family="Times,serif" font-size="14.00" fill="#000000"> vee</text>
</g>
<!-- SO3 -->
<g id="node3" class="node">
<title>SO3</title>
<ellipse fill="none" stroke="#000000" cx="42.6881" cy="-106.8" rx="28.4107" ry="18"/>
<text text-anchor="middle" x="42.6881" y="-102.6" font-family="Times,serif" font-size="14.00" fill="#000000">SO3</text>
</g>
<!-- so3&#45;&gt;SO3 -->
<g id="edge2" class="edge">
<title>so3-&gt;SO3</title>
<path fill="none" stroke="#000000" d="M27.418,-177.8622C25.1017,-167.5496 23.4231,-154.3496 25.9735,-142.8 26.6867,-139.5702 27.7201,-136.286 28.9285,-133.0813"/>
<polygon fill="#000000" stroke="#000000" points="32.1686,-134.4068 32.9337,-123.8396 25.7458,-131.6232 32.1686,-134.4068"/>
<text text-anchor="middle" x="38.5454" y="-147" font-family="Times,serif" font-size="14.00" fill="#000000"> exp</text>
</g>
<!-- SO3&#45;&gt;so3 -->
<g id="edge5" class="edge">
<title>SO3-&gt;so3</title>
<path fill="none" stroke="#000000" d="M48.1304,-124.5381C50.5279,-134.8508 52.2779,-148.0508 49.6881,-159.6 48.9622,-162.8373 47.9108,-166.1262 46.6816,-169.3336"/>
<polygon fill="#000000" stroke="#000000" points="43.4376,-168.0157 42.6078,-178.578 49.8432,-170.8385 43.4376,-168.0157"/>
<text text-anchor="middle" x="62.3834" y="-147" font-family="Times,serif" font-size="14.00" fill="#000000"> log</text>
</g>
<!-- AdjSO3 -->
<g id="node4" class="node">
<title>AdjSO3</title>
<ellipse fill="none" stroke="#000000" cx="42.6881" cy="-18" rx="42.8771" ry="18"/>
<text text-anchor="middle" x="42.6881" y="-13.8" font-family="Times,serif" font-size="14.00" fill="#000000">AdjSO3</text>
</g>
<!-- SO3&#45;&gt;AdjSO3 -->
<g id="edge3" class="edge">
<title>SO3-&gt;AdjSO3</title>
<path fill="none" stroke="#000000" d="M42.6881,-88.4006C42.6881,-76.2949 42.6881,-60.2076 42.6881,-46.4674"/>
<polygon fill="#000000" stroke="#000000" points="46.1882,-46.072 42.6881,-36.072 39.1882,-46.0721 46.1882,-46.072"/>
<text text-anchor="middle" x="63.8813" y="-58.2" font-family="Times,serif" font-size="14.00" fill="#000000"> adjoint</text>
</g>
<!-- Vec6 -->
<g id="node5" class="node">
<title>Vec6</title>
<ellipse fill="none" stroke="#000000" cx="134.6881" cy="-284.4" rx="31.3198" ry="18"/>
<text text-anchor="middle" x="134.6881" y="-280.2" font-family="Times,serif" font-size="14.00" fill="#000000">Vec6</text>
</g>
<!-- se3 -->
<g id="node6" class="node">
<title>se3</title>
<ellipse fill="none" stroke="#000000" cx="149.6881" cy="-195.6" rx="27" ry="18"/>
<text text-anchor="middle" x="149.6881" y="-191.4" font-family="Times,serif" font-size="14.00" fill="#000000">se3</text>
</g>
<!-- Vec6&#45;&gt;se3 -->
<g id="edge6" class="edge">
<title>Vec6-&gt;se3</title>
<path fill="none" stroke="#000000" d="M131.338,-266.0971C130.066,-255.8331 129.4756,-242.8663 132.0829,-231.6 132.8358,-228.3465 133.9254,-225.0474 135.1988,-221.8342"/>
<polygon fill="#000000" stroke="#000000" points="138.4525,-223.1347 139.418,-212.5839 132.0837,-220.2297 138.4525,-223.1347"/>
<text text-anchor="middle" x="142.9907" y="-235.8" font-family="Times,serif" font-size="14.00" fill="#000000"> hat</text>
</g>
<!-- se3&#45;&gt;Vec6 -->
<g id="edge9" class="edge">
<title>se3-&gt;Vec6</title>
<path fill="none" stroke="#000000" d="M153.2795,-213.9084C154.6608,-224.1742 155.346,-237.1408 152.6881,-248.4 151.9335,-251.5964 150.8493,-254.8325 149.5819,-257.9861"/>
<polygon fill="#000000" stroke="#000000" points="146.3986,-256.5313 145.3767,-267.0767 152.7518,-259.4702 146.3986,-256.5313"/>
<text text-anchor="middle" x="165.1527" y="-235.8" font-family="Times,serif" font-size="14.00" fill="#000000"> vee</text>
</g>
<!-- SE3 -->
<g id="node7" class="node">
<title>SE3</title>
<ellipse fill="none" stroke="#000000" cx="153.6881" cy="-106.8" rx="27.2661" ry="18"/>
<text text-anchor="middle" x="153.6881" y="-102.6" font-family="Times,serif" font-size="14.00" fill="#000000">SE3</text>
</g>
<!-- se3&#45;&gt;SE3 -->
<g id="edge7" class="edge">
<title>se3-&gt;SE3</title>
<path fill="none" stroke="#000000" d="M142.5996,-178.0109C139.3439,-167.7479 136.6653,-154.5479 138.9735,-142.8 139.5788,-139.7193 140.4497,-136.5699 141.4697,-133.4786"/>
<polygon fill="#000000" stroke="#000000" points="144.808,-134.5469 145.0937,-123.956 138.2657,-132.0571 144.808,-134.5469"/>
<text text-anchor="middle" x="151.5454" y="-147" font-family="Times,serif" font-size="14.00" fill="#000000"> exp</text>
</g>
<!-- SE3&#45;&gt;se3 -->
<g id="edge10" class="edge">
<title>SE3-&gt;se3</title>
<path fill="none" stroke="#000000" d="M159.7271,-124.4067C162.4902,-134.6757 164.7402,-147.8757 162.6881,-159.6 162.1833,-162.4841 161.4672,-165.4419 160.6274,-168.3626"/>
<polygon fill="#000000" stroke="#000000" points="157.2607,-167.3949 157.4233,-177.9885 163.9025,-169.6057 157.2607,-167.3949"/>
<text text-anchor="middle" x="173.3834" y="-147" font-family="Times,serif" font-size="14.00" fill="#000000"> log</text>
</g>
<!-- AdjSE3 -->
<g id="node8" class="node">
<title>AdjSE3</title>
<ellipse fill="none" stroke="#000000" cx="153.6881" cy="-18" rx="41.7327" ry="18"/>
<text text-anchor="middle" x="153.6881" y="-13.8" font-family="Times,serif" font-size="14.00" fill="#000000">AdjSE3</text>
</g>
<!-- SE3&#45;&gt;AdjSE3 -->
<g id="edge8" class="edge">
<title>SE3-&gt;AdjSE3</title>
<path fill="none" stroke="#000000" d="M153.6881,-88.4006C153.6881,-76.2949 153.6881,-60.2076 153.6881,-46.4674"/>
<polygon fill="#000000" stroke="#000000" points="157.1882,-46.072 153.6881,-36.072 150.1882,-46.0721 157.1882,-46.072"/>
<text text-anchor="middle" x="174.8813" y="-58.2" font-family="Times,serif" font-size="14.00" fill="#000000"> adjoint</text>
</g>
</g>
</svg>